<svg>
  <path d="M15.8693 2.43798L17.1777 0.428075C17.2618 0.301306 17.2246 0.127975 17.096 
  0.0454386C16.9687 -0.0382613 16.7944 -0.00356189 16.7115 0.126755L15.355 2.20606C14.3374
   1.79116 13.2008 1.55802 12.0004 1.55802C10.7989 1.55802 9.66472 1.79116 8.64468 2.20606L7.29062
    0.126755C7.20774 -0.00356189 7.03228 -0.0382613 6.90372 0.0454386C6.77517 0.127919 6.73791 0.301306 
    6.82201 0.428075L8.13163 2.43798C5.77067 3.58944 4.17871 5.7596 4.17871 8.24898C4.17871 8.40202 4.18835
     8.55268 4.20155 8.70212H19.8005C19.8137 8.55268 19.8221 8.40202 19.8221 8.24898C19.8222 5.7596 18.229 
     3.58944 15.8693 2.43798ZM8.38395 6.03697C7.96943 6.03697 7.63301 5.70455 7.63301 5.29088C7.63301 4.8772
      7.96943 4.54595 8.38395 4.54595C8.80087 4.54595 9.1349 4.87714 9.1349 5.29088C9.1349 5.70461 8.79847 
      6.03697 8.38395 6.03697ZM15.6158 6.03697C15.2012 6.03697 14.8648 5.70455 14.8648 5.29088C14.8648 4.8772 
      15.2012 4.54595 15.6158 4.54595C16.0315 4.54595 16.3655 4.87714 16.3655 
      5.29088C16.3655 5.70455 16.0315 6.03697 15.6158 6.03697Z">
    </path>
</svg>